<mxfile host="65bd71144e" scale="2" border="0">
    <diagram id="OZ6w2GOdudwYGQoKYb9u" name="Page-1">
        <mxGraphModel dx="515" dy="1456" grid="1" gridSize="10" guides="1" tooltips="1" connect="1" arrows="1" fold="1" page="1" pageScale="1" pageWidth="850" pageHeight="1100" math="0" shadow="0">
            <root>
                <mxCell id="0"/>
                <mxCell id="1" parent="0"/>
                <mxCell id="17" value="" style="rounded=0;whiteSpace=wrap;html=1;strokeColor=#0077FF;fillColor=none;dashed=1;" parent="1" vertex="1">
                    <mxGeometry x="160" y="80" width="182.5" height="215" as="geometry"/>
                </mxCell>
                <mxCell id="2" value="&lt;font color=&quot;#ffffff&quot;&gt;Tools&lt;/font&gt;" style="rounded=1;whiteSpace=wrap;html=1;fillColor=#0077FF;strokeColor=none;" parent="1" vertex="1">
                    <mxGeometry x="191.25" y="202.5" width="120" height="60" as="geometry"/>
                </mxCell>
                <mxCell id="5" value="&lt;font color=&quot;#ffffff&quot;&gt;Agent&lt;/font&gt;" style="rounded=1;whiteSpace=wrap;html=1;fillColor=#0077FF;strokeColor=none;" parent="1" vertex="1">
                    <mxGeometry x="191.25" y="112.5" width="120" height="60" as="geometry"/>
                </mxCell>
                <mxCell id="11" value="&lt;font color=&quot;#ffffff&quot;&gt;Team&lt;/font&gt;" style="rounded=1;whiteSpace=wrap;html=1;fillColor=#0077FF;strokeColor=none;" parent="1" vertex="1">
                    <mxGeometry x="159.13" y="550" width="407.75" height="80" as="geometry"/>
                </mxCell>
                <mxCell id="25" value="" style="edgeStyle=elbowEdgeStyle;elbow=vertical;endArrow=classic;html=1;rounded=1;endSize=8;startSize=8;exitX=0.5;exitY=1;exitDx=0;exitDy=0;entryX=0.5;entryY=0;entryDx=0;entryDy=0;strokeColor=#0077FF;" parent="1" source="68" target="72" edge="1">
                    <mxGeometry width="50" height="50" relative="1" as="geometry">
                        <mxPoint x="482.5" y="310" as="sourcePoint"/>
                        <mxPoint x="364.5" y="419.94000000000005" as="targetPoint"/>
                    </mxGeometry>
                </mxCell>
                <mxCell id="35" value="" style="edgeStyle=elbowEdgeStyle;elbow=vertical;endArrow=classic;html=1;rounded=1;endSize=8;startSize=8;exitX=0.5;exitY=1;exitDx=0;exitDy=0;entryX=0.5;entryY=0;entryDx=0;entryDy=0;strokeColor=#0077FF;" parent="1" source="17" target="72" edge="1">
                    <mxGeometry width="50" height="50" relative="1" as="geometry">
                        <mxPoint x="492.5000000000002" y="320" as="sourcePoint"/>
                        <mxPoint x="310.26" y="420.65999999999985" as="targetPoint"/>
                    </mxGeometry>
                </mxCell>
                <mxCell id="67" value="" style="endArrow=classic;html=1;rounded=1;strokeColor=#0077FF;exitX=0.5;exitY=1;exitDx=0;exitDy=0;entryX=0.5;entryY=0;entryDx=0;entryDy=0;" parent="1" source="5" target="2" edge="1">
                    <mxGeometry width="50" height="50" relative="1" as="geometry">
                        <mxPoint x="250.9400000000001" y="172.5" as="sourcePoint"/>
                        <mxPoint x="250.80000000000013" y="221.9000000000001" as="targetPoint"/>
                    </mxGeometry>
                </mxCell>
                <mxCell id="68" value="" style="rounded=0;whiteSpace=wrap;html=1;strokeColor=#0077FF;fillColor=none;dashed=1;" parent="1" vertex="1">
                    <mxGeometry x="385.25" y="80" width="182.5" height="215" as="geometry"/>
                </mxCell>
                <mxCell id="69" value="&lt;font color=&quot;#ffffff&quot;&gt;Agent&lt;/font&gt;" style="rounded=1;whiteSpace=wrap;html=1;fillColor=#0077FF;strokeColor=none;" parent="1" vertex="1">
                    <mxGeometry x="416.5" y="202.5" width="120" height="60" as="geometry"/>
                </mxCell>
                <mxCell id="70" value="&lt;font color=&quot;#ffffff&quot;&gt;Task&lt;/font&gt;" style="rounded=1;whiteSpace=wrap;html=1;fillColor=#0077FF;strokeColor=none;" parent="1" vertex="1">
                    <mxGeometry x="416.5" y="112.5" width="120" height="60" as="geometry"/>
                </mxCell>
                <mxCell id="71" value="" style="endArrow=classic;html=1;rounded=1;strokeColor=#0077FF;exitX=0.5;exitY=1;exitDx=0;exitDy=0;entryX=0.5;entryY=0;entryDx=0;entryDy=0;" parent="1" source="70" target="69" edge="1">
                    <mxGeometry width="50" height="50" relative="1" as="geometry">
                        <mxPoint x="476.1900000000001" y="172.5" as="sourcePoint"/>
                        <mxPoint x="476.0500000000001" y="221.9000000000001" as="targetPoint"/>
                    </mxGeometry>
                </mxCell>
                <mxCell id="72" value="" style="rounded=0;whiteSpace=wrap;html=1;strokeColor=#0077FF;fillColor=none;dashed=1;" parent="1" vertex="1">
                    <mxGeometry x="160" y="380" width="406" height="120" as="geometry"/>
                </mxCell>
                <mxCell id="73" value="&lt;font color=&quot;#ffffff&quot;&gt;Planning&lt;/font&gt;" style="rounded=1;whiteSpace=wrap;html=1;fillColor=#0077FF;strokeColor=none;" parent="1" vertex="1">
                    <mxGeometry x="383" y="410" width="120" height="60" as="geometry"/>
                </mxCell>
                <mxCell id="74" value="&lt;font color=&quot;#ffffff&quot;&gt;Memory&lt;/font&gt;" style="rounded=1;whiteSpace=wrap;html=1;fillColor=#0077FF;strokeColor=none;" parent="1" vertex="1">
                    <mxGeometry x="223" y="410" width="120" height="60" as="geometry"/>
                </mxCell>
                <mxCell id="76" value="" style="endArrow=classic;html=1;rounded=1;strokeColor=#0077FF;exitX=0.5;exitY=1;exitDx=0;exitDy=0;entryX=0.5;entryY=0;entryDx=0;entryDy=0;" parent="1" source="72" target="11" edge="1">
                    <mxGeometry width="50" height="50" relative="1" as="geometry">
                        <mxPoint x="362.65999999999985" y="500" as="sourcePoint"/>
                        <mxPoint x="362.65999999999985" y="530" as="targetPoint"/>
                    </mxGeometry>
                </mxCell>
            </root>
        </mxGraphModel>
    </diagram>
</mxfile>